# xmcd
#
# Track frame offsets:
#	150
#	20307
#	41038
#	57635
#	84484
#	115481
#	136112
#	170230
#	189801
#	219967
#	242671
#
# Disc length: 3259 seconds
#
# Revision: 1
# Processed by: cddbd v1.5.2PL0 Copyright (c) Steve Scherf et al.
# Submitted via: audiograbber 1.83.01
#
DISCID=940cb90b
DTITLE=Eric Clapton and Jeff Beck - Live At Saitama, Japan 2-22-2009 [CD2]
DYEAR=2009
DGENRE=
TTITLE0=Driftin' Blues
TTITLE1=Layla (Acoustic)
TTITLE2=Motherless Child
TTITLE3=Running On Faith
TTITLE4=Tell The Truth
TTITLE5=Key To The Highway
TTITLE6=I Shot The Sheriff
TTITLE7=Wonderful Tonight
TTITLE8=Cocaine
TTITLE9=Crossroads
TTITLE10=We'll See You In A Couple Of Minutes - Short Break
EXTD=
EXTT0=
EXTT1=
EXTT2=
EXTT3=
EXTT4=
EXTT5=
EXTT6=
EXTT7=
EXTT8=
EXTT9=
EXTT10=
PLAYORDER=
